# xmcd
#
# Track frame offsets:
#	150
#	9913
#	25668
#	37553
#	50130
#	63761
#	78228
#	87865
#	105368
#	115853
#	125241
#	139888
#	154236
#	169970
#	186693
#	200053
#	227543
#	237265
#	252545
#
# Disc length: 3697 seconds
#
# Revision: 3
# Processed by: cddbd v1.5PL3 Copyright (c) Steve Scherf et al.
# Submitted via: audiograbber 1.82.01
#
DISCID=fc0e6f13
DTITLE=Кукуруза - Чудак, птичий рынок и фокусник
DYEAR=1900
DGENRE=Bluegrass
TTITLE0=Чудак
TTITLE1=Птичий рынок
TTITLE2=Песня деревенского парня
TTITLE3=А помнишь?
TTITLE4=Сон мышонка
TTITLE5=Рыболов
TTITLE6=Петушиный бой
TTITLE7=Фокусник
TTITLE8=Арбуз
TTITLE9=Говорушка
TTITLE10=В коробке с карандашами
TTITLE11=Пер-скрипач
TTITLE12=Солдатик оловянный
TTITLE13=Спящая принцесса
TTITLE14=Белый цветок в голубой траве
TTITLE15=Сегодня
TTITLE16=Пой, Вася
TTITLE17=Цирк
TTITLE18=Земля
EXTD=Песни для детей и их родителей
EXTT0=
EXTT1=
EXTT2=
EXTT3=
EXTT4=
EXTT5=
EXTT6=
EXTT7=
EXTT8=
EXTT9=
EXTT10=
EXTT11=
EXTT12=
EXTT13=
EXTT14=
EXTT15=
EXTT16=
EXTT17=
EXTT18=
PLAYORDER=
